# xmcd CD database file
# Copyright (C) 1993-1998 Ti Kan
#
# Track frame offsets:
#  150
#  24482
#  38970
#  57292
#  81837
#  100387
#  125585
#  145137
#  166017
#
# Disc length: 2995 seconds
#
# Revision: 1
# Processed by: cddbd v1.4b41PL1 Copyright (c) Steve Scherf et al.
# Submitted via: CDWizzard Release:4.35
#
DISCID=720bb109
DTITLE=Four and Twenty Elders - 4&20
DYEAR=1900
DGENRE=
TTITLE0=I Wanna Know
TTITLE1=Diamonds
TTITLE2=Brand New Man
TTITLE3=Mountain
TTITLE4=Love Like Mine
TTITLE5=The Call
TTITLE6=Forgiven
TTITLE7=Faith Hope Love
TTITLE8=Backlash
EXTD=
EXTT0=
EXTT1=
EXTT2=
EXTT3=
EXTT4=
EXTT5=
EXTT6=
EXTT7=
EXTT8=
PLAYORDER=
